# xmcd CD database file
#
# Track frame offsets:
#	150
#	9205
#	23802
#	35728
#	46258
#	61047
#	73232
#	86496
#	100285
#	112162
#	125375
#	138100
#	151745
#	166558
#	179863
#	192512
#	207106
#	220456
#	235731
#	247844
#	258354
#	271326
#	285806
#	301263
#	313730
#	325653
#	340519
#
# Disc length: 4690 seconds
#
# Revision: 0
# Processed by: cddbd v1.4PL0 Copyright (c) Steve Scherf et al.
# Submitted via: CDex 1.51
#
DISCID=6e12501b
DTITLE=Art Tatum - Piano Grand Master Volume 1
DYEAR=2003
DGENRE=Jazz
TTITLE0=Tiger Rag
TTITLE1=Tea For Two
TTITLE2=St. Louis Blues
TTITLE3=Tiger Rag (Alternate Take)
TTITLE4=Sophisticated Lady
TTITLE5=Moonglow
TTITLE6=I Would Do Anything For You
TTITLE7=When A Woman Loves A Man
TTITLE8=Emaline
TTITLE9=Love Me
TTITLE10=Cocktails For Two
TTITLE11=After You've Gone
TTITLE12=Stardust
TTITLE13=Ill Wind
TTITLE14=The Shout
TTITLE15=Beautiful Love
TTITLE16=Liza
TTITLE17=I Ain't Got Nobody
TTITLE18=Stay As Sweet As You Are
TTITLE19=I Wish I Were Twins
TTITLE20=Gone With The Wind
TTITLE21=Stormy Weather
TTITLE22=Chloe
TTITLE23=The Sheik Of Araby
TTITLE24=Tea for Two (Alternate Take)
TTITLE25=Deep Purple
TTITLE26=It Had To Be You
EXTD=YEAR: 2003
EXTT0=
EXTT1=
EXTT2=
EXTT3=
EXTT4=
EXTT5=
EXTT6=
EXTT7=
EXTT8=
EXTT9=
EXTT10=
EXTT11=
EXTT12=
EXTT13=
EXTT14=
EXTT15=
EXTT16=
EXTT17=
EXTT18=
EXTT19=
EXTT20=
EXTT21=
EXTT22=
EXTT23=
EXTT24=
EXTT25=
EXTT26=
PLAYORDER=
